<svg xmlns="http://www.w3.org/2000/svg" width="752pt" height="752pt" viewBox="0 0 752 752"><g><path d="m752 376c0 134.33-71.664 258.46-188 325.62-116.34 67.168-259.66 67.168-376 0-116.34-67.164-188-191.29-188-325.62s71.664-258.46 188-325.62c116.34-67.168 259.66-67.168 376 0 116.34 67.164 188 191.29 188 325.62"></path><path d="m275 423.95c-1.2578 0-2.5234-0.35547-3.6523-1.0977-3.0547-2.0234-3.8867-6.1367-1.8711-9.1875l63.926-96.609c1.2734-1.9219 3.4727-3.0586 5.7695-2.9688 2.3047 0.085938 4.4102 1.3633 5.5391 3.375l23.992 42.66 48.84-84.59c1.1836-2.0469 3.3672-3.3047 5.7344-3.3086h0.007812c2.3594 0 4.543 1.2539 5.7305 3.293l67.16 115.4c1.8438 3.1641 0.76562 7.2227-2.3945 9.0625-3.1602 1.8438-7.2227 0.77344-9.0625-2.3945l-61.406-105.52-48.945 84.754c-1.1836 2.0508-3.3711 3.3086-5.7383 3.3086h-0.039062c-2.3828-0.015625-4.5742-1.3008-5.7461-3.375l-24.375-43.344-57.93 87.562c-1.2812 1.9258-3.3867 2.9727-5.5391 2.9727z" fill="#fff"></path><path d="m560.7 427.7c-20.418 0-31.094-6.8477-40.523-12.891-9.0312-5.793-16.836-10.789-33.367-10.789s-24.336 5-33.367 10.789c-9.4258 6.0391-20.109 12.891-40.523 12.891-20.418 0-31.09-6.8477-40.52-12.891-9.0352-5.793-16.836-10.789-33.363-10.789s-24.328 5-33.359 10.789c-9.4258 6.0391-20.102 12.891-40.52 12.891-20.406 0-31.086-6.8477-40.504-12.891-9.0273-5.793-16.828-10.789-33.344-10.789-3.6602 0-6.6289-2.9688-6.6289-6.6289 0-3.6602 2.9648-6.625 6.6289-6.625 20.406 0 31.082 6.8438 40.504 12.887 9.0273 5.793 16.828 10.789 33.348 10.789 16.527 0 24.328-5 33.363-10.789 9.4258-6.0391 20.102-12.887 40.516-12.887 20.418 0 31.094 6.8438 40.52 12.887 9.0312 5.793 16.836 10.789 33.363 10.789s24.332-5 33.363-10.789c9.4258-6.0391 20.109-12.887 40.527-12.887 20.422 0 31.102 6.8438 40.527 12.887 9.0312 5.793 16.836 10.789 33.363 10.789 3.6602 0 6.6289 2.9688 6.6289 6.6289 0 3.6602-2.9727 6.6289-6.6328 6.6289z" fill="#fff"></path><path d="m560.7 479.8c-20.418 0-31.094-6.8477-40.523-12.891-9.0312-5.793-16.836-10.789-33.367-10.789s-24.336 5-33.367 10.789c-9.4258 6.0391-20.109 12.891-40.523 12.891-20.418 0-31.09-6.8477-40.52-12.891-9.0352-5.793-16.836-10.789-33.363-10.789s-24.328 5-33.359 10.789c-9.4258 6.0391-20.102 12.891-40.52 12.891-20.406 0-31.086-6.8477-40.504-12.891-9.0273-5.793-16.828-10.789-33.344-10.789-3.6602 0-6.6289-2.9688-6.6289-6.6289 0-3.6602 2.9648-6.6289 6.6289-6.6289 20.406 0 31.082 6.8477 40.504 12.891 9.0273 5.793 16.828 10.789 33.348 10.789 16.527 0 24.328-5 33.363-10.789 9.4258-6.0391 20.102-12.891 40.516-12.891 20.418 0 31.094 6.8477 40.52 12.891 9.0312 5.793 16.836 10.789 33.363 10.789s24.332-5 33.363-10.789c9.4258-6.0391 20.109-12.891 40.527-12.891 20.422 0 31.102 6.8477 40.527 12.891 9.0312 5.793 16.836 10.789 33.363 10.789 3.6602 0 6.6289 2.9688 6.6289 6.6289 0 3.6602-2.9727 6.6289-6.6328 6.6289z" fill="#fff"></path></g></svg>